HIERARCHY
ROOT hip
{
  OFFSET 0 0 0
  CHANNELS 6 Xposition Yposition Zposition Zrotation Yrotation Xrotation
  JOINT abdomen
  {
    OFFSET 0 20.6881 -0.73152
    CHANNELS 3 Zrotation Xrotation Yrotation
    JOINT chest
    {
      OFFSET 0 11.7043 -0.48768
      CHANNELS 3 Zrotation Xrotation Yrotation
      JOINT neck
      {
        OFFSET 0 22.1894 -2.19456
        CHANNELS 3 Zrotation Xrotation Yrotation
        JOINT head
        {
          OFFSET -0.24384 7.07133 1.2192
          CHANNELS 3 Zrotation Xrotation Yrotation
          JOINT leftEye
          {
            OFFSET 4.14528 8.04674 8.04672
            CHANNELS 3 Zrotation Xrotation Yrotation
            End Site
            {
              OFFSET 1 0 0
            }
          }
          JOINT rightEye
          {
            OFFSET -3.6576 8.04674 8.04672
            CHANNELS 3 Zrotation Xrotation Yrotation
            End Site
            {
              OFFSET 1 0 0
            }
          }
        }
      }
      JOINT rCollar
      {
        OFFSET -2.68224 19.2634 -4.8768
        CHANNELS 3 Zrotation Xrotation Yrotation
        JOINT rShldr
        {
          OFFSET -8.77824 -1.95073 1.46304
          CHANNELS 3 Zrotation Xrotation Yrotation
          JOINT rForeArm
          {
            OFFSET -28.1742 -1.7115 0.48768
            CHANNELS 3 Zrotation Xrotation Yrotation
            JOINT rHand
            {
              OFFSET -22.5879 0.773209 7.07136
              CHANNELS 3 Zrotation Xrotation Yrotation
              JOINT rThumb1
              {
                OFFSET -1.2192 -0.487915 3.41376
                CHANNELS 3 Zrotation Xrotation Yrotation
                JOINT rThumb2
                {
                  OFFSET -3.37035 -0.52449 3.41376
                  CHANNELS 3 Zrotation Xrotation Yrotation
                  End Site
                  {
                    OFFSET -1.78271 -1.18214 1.43049
                  }
                }
              }
              JOINT rIndex1
              {
                OFFSET -7.75947 0.938293 5.60832
                CHANNELS 3 Zrotation Xrotation Yrotation
                JOINT rIndex2
                {
                  OFFSET -2.54057 -0.884171 1.56538
                  CHANNELS 3 Zrotation Xrotation Yrotation
                  End Site
                  {
                    OFFSET -1.62519 -0.234802 1.16502
                  }
                }
              }
              JOINT rMid1
              {
                OFFSET -8.24714 1.18213 3.41376
                CHANNELS 3 Zrotation Xrotation Yrotation
                JOINT rMid2
                {
                  OFFSET -3.10165 -0.590103 1.0647
                  CHANNELS 3 Zrotation Xrotation Yrotation
                  End Site
                  {
                    OFFSET -2.48547 -0.328903 0.83742
                  }
                }
              }
              JOINT rRing1
              {
                OFFSET -8.82822 0.546677 1.51678
                CHANNELS 3 Zrotation Xrotation Yrotation
                JOINT rRing2
                {
                  OFFSET -2.60934 -0.819778 -0.0198488
                  CHANNELS 3 Zrotation Xrotation Yrotation
                  End Site
                  {
                    OFFSET -2.33842 -0.294052 0.168128
                  }
                }
              }
              JOINT rPinky1
              {
                OFFSET -8.27202 -0.0477905 -0.4584
                CHANNELS 3 Zrotation Xrotation Yrotation
                JOINT rPinky2
                {
                  OFFSET -1.82734 -0.647385 -0.700984
                  CHANNELS 3 Zrotation Xrotation Yrotation
                  End Site
                  {
                    OFFSET -1.69225 -0.51767 -0.607171
                  }
                }
              }
            }
          }
        }
      }
      JOINT lCollar
      {
        OFFSET 2.68224 19.2634 -4.8768
        CHANNELS 3 Zrotation Xrotation Yrotation
        JOINT lShldr
        {
          OFFSET 8.77824 -1.95073 1.46304
          CHANNELS 3 Zrotation Xrotation Yrotation
          JOINT lForeArm
          {
            OFFSET 28.1742 -1.7115 0.48768
            CHANNELS 3 Zrotation Xrotation Yrotation
            JOINT lHand
            {
              OFFSET 22.5879 0.773209 7.07136
              CHANNELS 3 Zrotation Xrotation Yrotation
              JOINT lThumb1
              {
                OFFSET 1.2192 -0.487915 3.41376
                CHANNELS 3 Zrotation Xrotation Yrotation
                JOINT lThumb2
                {
                  OFFSET 3.37035 -0.52449 3.41376
                  CHANNELS 3 Zrotation Xrotation Yrotation
                  End Site
                  {
                    OFFSET 1.78271 -1.18214 1.43049
                  }
                }
              }
              JOINT lIndex1
              {
                OFFSET 7.75947 0.938293 5.60832
                CHANNELS 3 Zrotation Xrotation Yrotation
                JOINT lIndex2
                {
                  OFFSET 2.54057 -0.884171 1.56538
                  CHANNELS 3 Zrotation Xrotation Yrotation
                  End Site
                  {
                    OFFSET 1.62519 -0.234802 1.16502
                  }
                }
              }
              JOINT lMid1
              {
                OFFSET 8.24714 1.18213 3.41376
                CHANNELS 3 Zrotation Xrotation Yrotation
                JOINT lMid2
                {
                  OFFSET 3.10165 -0.590103 1.0647
                  CHANNELS 3 Zrotation Xrotation Yrotation
                  End Site
                  {
                    OFFSET 2.48547 -0.328903 0.83742
                  }
                }
              }
              JOINT lRing1
              {
                OFFSET 8.82822 0.546677 1.51678
                CHANNELS 3 Zrotation Xrotation Yrotation
                JOINT lRing2
                {
                  OFFSET 2.60934 -0.819778 -0.0198488
                  CHANNELS 3 Zrotation Xrotation Yrotation
                  End Site
                  {
                    OFFSET 2.33842 -0.294052 0.168128
                  }
                }
              }
              JOINT lPinky1
              {
                OFFSET 8.27202 -0.0477905 -0.4584
                CHANNELS 3 Zrotation Xrotation Yrotation
                JOINT lPinky2
                {
                  OFFSET 1.82734 -0.647385 -0.700984
                  CHANNELS 3 Zrotation Xrotation Yrotation
                  End Site
                  {
                    OFFSET 1.69225 -0.51767 -0.607171
                  }
                }
              }
            }
          }
        }
      }
    }
  }
  JOINT rButtock
  {
    OFFSET -8.77824 4.35084 1.2192
    CHANNELS 3 Zrotation Xrotation Yrotation
    JOINT rThigh
    {
      OFFSET 0 -1.70687 -2.19456
      CHANNELS 3 Zrotation Xrotation Yrotation
      JOINT rShin
      {
        OFFSET 0 -36.8199 0.73152
        CHANNELS 3 Zrotation Xrotation Yrotation
        JOINT rFoot
        {
          OFFSET 0.73152 -45.1104 -5.12064
          CHANNELS 3 Zrotation Xrotation Yrotation
          End Site
          {
            OFFSET -1.1221 -3.69964 12.103
          }
        }
      }
    }
  }
  JOINT lButtock
  {
    OFFSET 8.77824 4.35084 1.2192
    CHANNELS 3 Zrotation Xrotation Yrotation
    JOINT lThigh
    {
      OFFSET 0 -1.70687 -2.19456
      CHANNELS 3 Zrotation Xrotation Yrotation
      JOINT lShin
      {
        OFFSET 0 -36.8199 0.73152
        CHANNELS 3 Zrotation Xrotation Yrotation
        JOINT lFoot
        {
          OFFSET -0.73152 -45.1104 -5.12064
          CHANNELS 3 Zrotation Xrotation Yrotation
          End Site
          {
            OFFSET 1.1221 -3.69964 12.103
          }
        }
      }
    }
  }
}
MOTION
Frames:	4
Frame Time:	0.03333
0.011112727224826813 61.80012822151184 0.12132497504353523 -2.3945415019989014 2.3583569526672363 5.762959003448486 -2.347414493560791 13.740030288696289 3.0829737186431885 3.1581835746765137 -9.109197616577148 0.981139063835144 -5.68848991394043 14.861412048339844 -5.3412861824035645 8.588519096374512 -24.54054069519043 -7.9202561378479 -0.11003518104553223 -0.09964164346456528 0.0075377714820206165 0.13845324516296387 0.03998660668730736 -0.07942987978458405 0.03452615812420845 -0.008839196525514126 -0.055282462388277054 52.399986267089844 38.05791091918945 10.477635383605957 -28.12936782836914 -31.44065284729004 69.57735443115234 0.07071805000305176 2.099757671356201 0.10631529986858368 -0.004650596994906664 -0.051158607006073 -0.02310357242822647 0.03297607973217964 0.06750117987394333 -0.055989500135183334 0.027219343930482864 -0.069539874792099 0.06269198656082153 7.727183818817139 5.471489429473877 0.4035593271255493 -0.014625154435634613 0.008278440684080124 0.011236880905926228 2.9241788387298584 0.9836195111274719 0.16829119622707367 -0.04584793746471405 0.025489268824458122 0.012144173495471478 10.32807731628418 0.72401362657547 0.07487515360116959 0.08110779523849487 0.10165585577487946 0.010734699666500092 2.328073024749756 -0.7788674235343933 -0.1864824891090393 0.021684158593416214 -0.12086106091737747 0.0650486871600151 -58.030731201171875 38.77189254760742 -22.06009864807129 28.282621383666992 -33.916812896728516 -73.66513061523438 0.3429185450077057 -18.017414093017578 2.625340461730957 -0.017222648486495018 -0.02985803782939911 0.007368339691311121 -0.01574030891060829 -0.05950314551591873 0.06936738640069962 -0.02114437334239483 -0.07829201221466064 0.062016602605581284 -7.837863922119141 5.563117980957031 -0.42040637135505676 -0.002521062968298793 -0.0033594255801290274 0.013141120783984661 -2.8839950561523438 0.9730295538902283 -0.1407759040594101 0.028863202780485153 -0.020266881212592125 -0.011922831647098064 -10.174129486083984 0.7188804745674133 -0.0779629722237587 -0.012761726975440979 -0.08531409502029419 -0.046283576637506485 -2.1252543926239014 -0.7443501949310303 0.21841655671596527 0.030580470338463783 -0.04424847289919853 -0.04241446778178215 -28.30068016052246 -44.39240646362305 -23.663585662841797 -1.3351495265960693 66.9561767578125 1.9517954587936401 -4.92189359664917 -12.318319320678711 -13.515530586242676 0.00012515217531472445 0.04670131206512451 0.021539587527513504 34.51708984375 -44.168453216552734 27.186342239379883 1.6553107500076294 69.87383270263672 -2.281301498413086 4.363417625427246 -11.16066837310791 14.095964431762695
0.08352696895599365 62.24893927574158 0.07760962471365929 -2.179114818572998 1.0034301280975342 5.258424758911133 -2.1810524463653564 13.751843452453613 2.7573297023773193 2.977932929992676 -8.993858337402344 0.9734517335891724 -5.446447849273682 14.950972557067871 -5.366912841796875 8.011662483215332 -24.17544937133789 -8.178568840026855 -0.10751902312040329 -0.05383245646953583 0.08337926864624023 0.166377991437912 0.027243364602327347 -0.0581696592271328 0.02290605939924717 0.028641387820243835 -0.038765888661146164 53.956512451171875 37.180938720703125 8.502496719360352 -28.242908477783203 -31.369510650634766 69.61695098876953 0.19481080770492554 1.8327372074127197 -0.10734736919403076 -0.09693323820829391 -0.022485874593257904 -0.03641973435878754 0.0018114570993930101 0.05559602752327919 -0.07575298845767975 -0.02693795971572399 -0.1076572835445404 0.07238968461751938 7.721716403961182 5.416374683380127 0.43536898493766785 0.011828719638288021 -0.05653097853064537 0.04343155398964882 2.898973226547241 0.9477199912071228 0.17843754589557648 0.010217555798590183 0.028746001422405243 -0.006142055615782738 10.252129554748535 0.7797501683235168 0.0926467776298523 0.0030845103319734335 0.02611236274242401 -0.01488108467310667 2.30295729637146 -0.7695211172103882 -0.11653202772140503 0.0370391309261322 -0.017813729122281075 0.0629749670624733 -58.46076583862305 39.362701416015625 -20.80416488647461 28.207189559936523 -33.40024185180664 -73.02377319335938 0.16091452538967133 -16.371667861938477 2.469572067260742 -0.08183838427066803 -0.000596330501139164 0.026746995747089386 0.009041658602654934 -0.009746694006025791 0.020514577627182007 -0.006692809518426657 0.007358835078775883 0.05836508050560951 -7.767822265625 5.565524578094482 -0.4302976131439209 0.05870009958744049 -0.021459076553583145 0.006383910309523344 -2.896106004714966 1.059084415435791 -0.061378758400678635 0.019421782344579697 -0.0605708509683609 0.0046608601696789265 -10.27595329284668 0.6622748374938965 -0.0592292845249176 -0.0758197233080864 -0.06999171525239944 0.0003445885085966438 -2.1406664848327637 -0.7627255320549011 0.21068385243415833 0.005169327836483717 0.006535389460623264 -0.03675684332847595 -27.79013442993164 -43.566802978515625 -22.81654167175293 -1.048953652381897 66.74100494384766 1.657523274421692 -5.3837385177612305 -13.084190368652344 -13.967851638793945 0.0300604235380888 0.04545651003718376 0.019371798262000084 33.36661911010742 -43.59874725341797 26.71914291381836 1.2343847751617432 69.91651916503906 -1.7514913082122803 4.224716663360596 -10.185136795043945 14.024619102478027
0.2330077812075615 48.839861154556274 -3.3452600240707397 -11.038704872131348 -2.459484338760376 21.77473258972168 8.779400825500488 30.568422317504883 -3.218398332595825 -3.070997714996338 -10.541271209716797 -1.4182982444763184 -4.653548717498779 20.952312469482422 4.930637359619141 10.180617332458496 -58.04056930541992 15.779191017150879 -0.14264583587646484 0.2153991162776947 -0.13241516053676605 -0.12527421116828918 -0.11996409296989441 0.12189686298370361 0.12387421727180481 -0.10317983478307724 -0.09517904371023178 34.07920455932617 19.677953720092773 51.954673767089844 -12.72179126739502 -5.423552989959717 22.12963104248047 -1.1405926942825317 -27.386337280273438 -4.943173408508301 0.29405972361564636 -0.046647269278764725 -0.12870021164417267 -0.6442257165908813 -0.1333785504102707 0.0428239181637764 0.07160196453332901 0.03138389438390732 0.42965248227119446 7.667327880859375 5.393920421600342 0.47399041056632996 -0.10725356638431549 -0.44012296199798584 -0.16695067286491394 2.7115695476531982 0.6594904661178589 0.09401711821556091 -0.427698016166687 -0.36414071917533875 0.07709595561027527 10.222114562988281 0.9072988629341125 0.15079252421855927 0.005709499586373568 -0.21439138054847717 -0.860215961933136 2.6426033973693848 -0.4969812035560608 -0.29612404108047485 0.26603782176971436 -0.02771996147930622 0.2453088015317917 -45.42280578613281 64.05306243896484 -66.58938598632812 21.6402530670166 -15.685235977172852 -45.46272277832031 0.3385273218154907 -21.950653076171875 2.5301215648651123 0.38732150197029114 -0.5212284922599792 -0.12088902294635773 -0.019002491608262062 0.2617739737033844 -0.028911517933011055 0.35602515935897827 0.4129163324832916 -0.01267245039343834 -8.547008514404297 5.55235481262207 -0.5852212309837341 -0.26606008410453796 -0.754831075668335 -0.37692397832870483 -3.3470215797424316 1.0927929878234863 -0.39874377846717834 -0.006156576331704855 -0.11414861679077148 -0.07246490567922592 -9.854122161865234 0.33299899101257324 0.013140905648469925 -0.0340079702436924 0.18024209141731262 -0.005694676656275988 -2.316793918609619 -1.0748261213302612 -0.003950423561036587 0.272032767534256 0.04128758981823921 0.26323190331459045 25.3327693939209 -49.53458023071289 24.543813705444336 -1.2218250036239624 56.43003463745117 -0.1355351060628891 2.7857000827789307 15.281227111816406 -14.308917045593262 0.4796854853630066 -0.4708050787448883 0.06762822717428207 -137.57537841796875 -71.69828796386719 -147.510498046875 179.96556091308594 58.45022964477539 -177.80804443359375 -3.68721866607666 16.559404373168945 -1.305728554725647
0.5442222580313683 35.57349741458893 -10.526542365550995 -11.3381986618042 -1.8534038066864014 16.610754013061523 7.122318744659424 32.05378723144531 -1.8051238059997559 -2.683279514312744 -10.77580738067627 -2.8579745292663574 -5.93277645111084 19.80791473388672 4.093621730804443 12.157773971557617 -55.663692474365234 12.842321395874023 -0.17997361719608307 0.06957149505615234 0.09056010842323303 0.13146626949310303 -0.24809730052947998 -0.13908711075782776 0.4635072350502014 0.3027985990047455 -0.21547120809555054 33.971256256103516 10.16019344329834 57.43125534057617 -13.285758972167969 -7.714366436004639 24.403766632080078 -1.5430861711502075 -30.304981231689453 -5.266819477081299 0.38908088207244873 -0.13614018261432648 0.22656022012233734 -0.9489670395851135 -0.17636069655418396 0.08551304787397385 0.7252495288848877 0.23223213851451874 0.14039386808872223 8.560359954833984 5.155339241027832 0.3700089156627655 0.3900841474533081 -0.6934582591056824 -0.4596368968486786 1.8230253458023071 1.4202967882156372 0.18366718292236328 -0.7409281730651855 -0.7788499593734741 -0.21938174962997437 9.384140968322754 -0.17749324440956116 0.5120717287063599 -0.5200584530830383 -0.3848068118095398 -1.34528648853302 2.7535505294799805 -0.6613698601722717 -0.06076386198401451 -0.18728116154670715 -0.10688603669404984 0.04991314932703972 -24.512588500976562 55.88667678833008 -101.67806243896484 20.58414077758789 -13.834465026855469 -43.56630325317383 -0.2821637690067291 -10.594257354736328 1.5581213235855103 1.2858747243881226 -0.08941943198442459 -0.13131245970726013 -0.5280091762542725 -0.11913540214300156 -0.7136358022689819 0.5192095637321472 0.9332177042961121 -0.3445536196231842 -10.035354614257812 4.719223499298096 -0.8048042058944702 -0.43069764971733093 -1.4983675479888916 0.004582630004733801 -3.7202792167663574 1.1515649557113647 -0.7506818771362305 -0.2528439462184906 0.6305795907974243 0.33223408460617065 -10.135765075683594 -0.37577441334724426 0.14677563309669495 -0.1634533852338791 0.29647791385650635 0.038909077644348145 -2.272512912750244 -1.518811821937561 0.21102315187454224 0.4880615472793579 -0.2664220929145813 0.6821369528770447 20.774005889892578 -48.76637268066406 11.546470642089844 -5.14837121963501 64.15231323242188 5.2150726318359375 -0.4856690764427185 8.146885871887207 -19.5400447845459 0.7669686675071716 -0.587569534778595 0.5543615221977234 -134.41368103027344 -76.65291595458984 -137.22451782226562 -179.5745849609375 50.016761779785156 -179.0810089111328 -1.7297765016555786 15.40300178527832 9.091309547424316
